<svg xmlns="http://www.w3.org/2000/svg" width="50" height="50" version="1.1" viewBox="0 0 73000 73000"><g fill="none" fill-rule="nonzero" stroke="none" stroke-width="1000" transform="translate( 2000 2000)"><rect class="animated" fill="#F5DA55" width="71000" height="71000" x="-1000" y="-1000" stroke="#000" stroke-width="2000" rx="14000"/><g fill="#000"><path class="animated" d="M51584 16855c92 684 36 1236-155 1658l-269-60c18-682 4-1070-35-1154l-96-75c-76 38-105 282-84 747l-108 50a522 522 0 00-134-178l-49 28c12 3228 34 4723-115 7264 32 627-3 993-112 1102 32 57 80 80 145 46 128 267 156 562 106 885 14 1420-20 2220-124 2394l314 564c30 58 11 113-58 138l-101 47c-78-158-167-213-270-168l-47 28a2650 2650 0 00-40 840l100-47c110-137 132-264 76-390l203-94 129 3c-43 181-42 320-2 403l89 76-18 360 28 48a695 695 0 01 433-30 800 800 0 00 269-235c119-53 550-220 1316-498l335-270c467-180 543-187 940-370l158-79 65-92 28 50c405-188 449-175 795-251l29 48-229 104 43 91a358 358 0 00 157-135c58-31 106-10 140 57a1988 1988 0 00-297 187l-117 3c-150 104-112 100-213 146l-178 25c10 27 7 48-15 65 30 57 69 83 127 52l194-90-100-3c10 26 33 37 68 24l833-390 305-190c10 25 34 36 60 27l134-118 287-133c228-104 212-117 680-376-10-26-6-47 20-56l15 43c892-502 808-460 983-603l-81-88c-248 158-252 120-385 188l-710 298-27-48 380-198 145-63 57-90 28 50c547-257 800-182 3235-1697 136-60 83-179 81-453a272 272 0 01-151 16c-186 166-315 164-707 385-35 13-70-4-114-67l-16-43 407-129c66-34 220-100 384-296 54 10-16 64 26 40l66-35c43-16 48-56 23-126l-79-80c-260 125-388 180-560 381l-29-48-317 154c-47-100-88-135-133-120l-167 82c-194 90-293 116-360 230-13-36-36-46-54-40l-184 86-90 103c-14-35-39-46-56-40l-47 86-28-48-267 77-58 32 44 90 152-15 119-54a305 305 0 00 160-18l94-93 16 44c-560 380-573 346-970 579-67-16-105-11-122-5-27 59 56-10 30-1-66 34-114 11-145-46l207-105c19-7 33 7 164-10 143-150 139-190 232-232l-44-92c-565 344-350 176-1093 515l-35 11-43-90c940-480 634-290 930-507 12 35 36 47 53 40a218 218 0 01 117-112l66-34c330-150 477-124 1087-562l16 43 93-92 101-48c-46-100 108-166 148-190l-47-100c-1103 676-1442 720-1737 936l-16-43c-292 174-313 143-388 180-26 10-52 48-74 95-12-34-36-45-63-35-51 19-19 26-47 85l47-85-975 541c-9-25-32-37-58-27-480 302-335 270-1018 586a270 270 0 00-113 100c-9-25-32-36-67-24l-422 193-262 174c-9-25-33-37-68-24a2585 2585 0 01-390 230l-9 2c-66 35 29-30-32-37l-69 84c-127 57-64 14-496 180-730 375-640 352-724 392l-293 88c10 27 6 47-25 68-338 74-522 82-553 24-67-319-54-501 52-560l50-28-14 124 48-28c86-90 111-157 92-210l-47-100-100 46-45-92a397 397 0 01-46-209l100-458 43 91 110-50-44-92-95-73c53-98 106-166 158-185l-28-50-144 63-63-143c69-732 85-1151 40-1243l120 6c69-36 90-83 56-148l-100 46-16-43a433 433 0 01-42-222c106-225 112-424 29-600 34-13 57-2 70 33 110-129 140-375 92-751 81-530 108-1542 80-3026 20-2650-105-2890-183-3480l-100 46a343 343 0 01 27 215 618 618 0 00-180 17l-16-43c-90-194-91-468-5-824l45-16 210 307 100-47a5738 5738 0 01-70-436c-27-49-72-62-153-42l-73 96c-35-67-92-252-193-560l-90 53m-707 1959 48-28c-28 167-61 268-118 298l-63-143a419 419 0 00 132-127m-57 1200c-51-464-35-744 39-840l28 50c93 417 78 649-37 710l109 245c-50 164-54 285-17 359l-49 28-153-338c49-28 82-99 80-215m40 624c30 57 37 212 35 448l-50 28-63-144c0-196 28-304 77-333m-567 7351 87 76c75-37 97-84 66-140l-27-50-50 26-76 87m1788 637 17 42c76-37 103-204 74-498l-116 3c-2 266 10 409 26 452m8917-2902 16 43-50 137 144-122 18-6-44-92-35 13-41 73c-10-25 154-144 5-119-10 53 62 36-13 73m454 190 228-105c-32-57-185-20-237-2l-35 13 44 92m-4130 1600 102 61c-10-25-6-47 20-56l87 77-228 53c-42-62-28-107 20-135m-685 339c75-38 147-5 172 65l-244 89-16-44a298 298 0 00 88-110m547-230 29 50-194 90-28-49 193-90m-1942 943c10 26 33 37 68 24 300-178 262-174 412-248 50-28 88-3 120 55l-870 404 102 12-27-48-330 150-28-49 296-136 256-163m894-414 16 44c-26 10 90-23 54 39-198 53-213 38-348 97l-16-44 294-136m216-108 16 43-158 78-16-42 160-78m-5248 2912 63 144c-50 29-106 9-149-55l-15-43 100-47m7401-2840 45 92 167-81-85-18 27 50 149-134c1145-564 1303-562 1234-695l-15-43c-1103 706-1279 710-1522 828m1803-842 186-29-44-92-186 28 44 93m-5028 2213c60 8-43 74 25 40l590-272 27 47c-167 83-271 150-293 196-13-34-37-45-72-32l-250 120-29-48c67-34-38 4 2-50m2794-1096 89 77c183-116 73-66 110-129 13 35 36 46 54 40l135-60-47-100-368 123 28 50m-3310 1626-35 13-44-91 36-13 43 91m-2603 1321 27 50 1554-714-44-91-1240 569-284 63-13 123m1748-745 17-6-43-93-17 7 43 92m-27415 486c-642 1756-957 2707-945 2870-290 644-411 1013-350 1100-94 122-117 219-68 299-31 22-64 14-85-18-83 394-300 698-655 937l-374 243c-48 28-59 80-33 150l28 49 143-92 25 40-301 257-567 363-316 135c-28 60 248-100 148-25l-366 242c-222 150-370 174-422 84l-40 26c60 85 57 156-7 198l72-46-88-134-668 440 91 5c-22-32-60-29-122 14l-68 113-123 15a902 902 0 01-156 166l-123 15c-240 284-14 202-32 208l60 86 159-107 263-115 15 122c-896 622-229 211-476 370l-48 29 58 85 146-92 28 50c-185 116-282 200-301 256l-28-48c-239 155-427 450-568 875 112 175-367 614 2070-970 180-76 285-114 307-132-22-31-10-55 22-77 283-142 163-39 330-149l527-340-97 115c-20-23-6-47 16-65a498 498 0 00 214-89l89 135-963 4420-278 809 56 913 40-25 207-193 38 350 60 86 101 61c-30 22-33 42-11 74l27 48 94-63c101-185 118-328 63-426 175-34 283-64 331-90l28 47c-86 62-110 159-71 293l28 48 48-28c503-1194 1398-4990 2258-7660-134-207 597-826 2192-1860l48-27c160 246 269 953 320 2124 14 712 44 1094 72 1143 27 942 61 1442 104 1505l115 2238a19008 19008 0 00 274 3595 426 426 0 01 171-43l59-110c22 31 42 34 85 18l-89-135 267-106c73-46 104-177 90-377-108-265-108-432 0-511-68-703-83-1070-52-1092-76-699-96-1104-53-1228-68-919-60-1414 43-1480l64 94-4 503c181 1418 255 2570 229 3444l226 351 49-28c165-1848 81-5355-235-10527a1306 1306 0 01 245-1170l-107-50-26-40c146-92 236-194 266-302-21-32-180-34-474-5l-452-3785c-135-1130-301-2102-504-2931l-28-49a2007 2007 0 01-640-268l-76-209-25-40-40 26c-226 947-752 2641-1551 5075m1444 369c110 166 164 530 170 1087 175 643 78 1082-280 1320l-28-49-298 256-145 91a393 393 0 01-220 71l-86-125c-27-50 217-925 760-2625l128-28m-11 2462 103-68 62 85c-490 365-762 563-817 603a420 420 0 00-116 140c-22-32-91-6-221 70-60-85 272-363 989-830m-4874 3423 113-70-64-94-112 70 63 94m1441-995 62 85-255 112-27-50 222-148M21820 38440l28 49-153 95-28-49 153-95m-74 745 25 40-184 115-62-86 220-70m442-278 24 40-335 220-23-42 333-219m597-335 27 48-878 566-60-85c521-300 473-242 910-529m4390-2856 110 58a583 583 0 00-206 193l-119 24a3300 3300 0 01-399 312l-94 63c-55 40-108 30-157-22l664-428 201-200m473-300 469-310 28 50a3076 3076 0 00-577 446l-28-50a384 384 0 00 107-136m-4863 3420 224-140 60 85c-95 64-16 36-124 144-244 118-204 64-570 306l-26-50 435-345m620-354c64-42 116-31 150 34l-135 89c-54 39-107 28-160-32l145-92m-727 6476 28 48c62-42 75-86 33-150l-28-48c-54 40-67 83-33 150m524 791c40 55 84 68 147 25 64-42 77-86 34-150l-28-48-94 63-60 110m6096-527c63-44 107-30 147 24l29 49-186 116a355 355 0 00-47-160l56-30"/><path class="animated" d="M31506 26237c-335 485-730 1002-1185 1532l42 93c35-12 78-58 132-126 66-35 112-13 144 45l77-87 43-15 16 43c28 48-237 459-767 1222l90 85-43 16-128-2c12 34-22 77-124 123l16 43 163 99a410 410 0 01-180 16c-230 103-392 359-505 753l87 77c134-255 213-392 246-404l64 144c-35 12-78 58-132 126l198 135a4210 4210 0 01 533-941c155-8 250 7 266 50l100-46c574-858 1192-1545 1858-2070l43 90c-65 260-120 400-170 427 35 66 73 120 130 168 57 127 33 1119-78 2977-238 4302-564 7546-994 9726 13 35 60 77 124 122 248-160 388-290 436-375l43-15 44 91 110-50 77-87c9 25 50 30 116-3l47 100c44 93 37 262-2 511-68 164-95 468-76 903l30 50 99-48c260-644 411-1230 466-1780 1126-833 1954-1537 2495-2137 656-308 1098-666 1342-1078l-28-48-233 173-49 27-28-48c471-250 770-487 899-700 689-1087 1220-1871 1607-2354 1110-1662 1437-2980 978-3972-47-101-529-399-1455-886-60-136 94-418 460-846l906-1628c160-480 113-1150-141-2010l-87-185c-264-564-861-876-1795-950-595-146-1510-10-2750 403-966 430-2165 1280-3576 2520m7108-2509-14 122-1686-82c999-314 1563-334 1700-39m-4456 6220c-96-584-92-929 4-1043l209-2866c-63-144 120-350 565-610l152-75 62 145c441-250 713-397 831-450 842-394 1360-378 1548 27l100-47-102-228 100-47c303 48 494 164 583 358 60 136 53 335-19 597-66 35-120-5-163-98l-102 48 72 306c-200 830-390 1283-583 1373-86 305-156 467-207 486-80 216-350 638-825 1254-203 93-853 663-1958 1715a449 449 0 00-218 50l-44-92c-83-176-82-443-6-805m4969-5246 47 100c-53 19-205-102-476-357l-43-93c92-43 254 75 472 350m-9212 4689 28 48a490 490 0 00-134 118l-44 16-44-92 195-90m3164-1242 63 144c-53 19-84 119-116 278l-44-91c46-145 60-248 37-309l60-21m-123 1204 87 185-50 27-86-184 48-29m8 402c52 167 40 270-35 307l-50 28c20-135 15-232-16-290l102-46m-40 594 28 50-31 188-100 47-28-50c100-47 135-118 88-220l44-15m-50 540 56 263-43 16-109-245 96-35m5426-1768 265 50c30 58 10 114-60 140-117-26-196-26-245 0l-53-147 92-44M34311 31200l44 92-203 94-45-93 204-93m3515-877c173 16 264 52 292 100l15 44c-135 60-290 37-470-74l163-70m-3972 2655c573-268 1404-884 2500-1853l312-143c625-286 1147-340 1580-153l87 184c12 762-104 1257-347 1483l-929 1537c-750 1000-1163 1514-1247 1554-1254 1430-2068 2226-2437 2400l-50 30c-31-196 147-1873 531-5040m1214-1080 28 49-203 94-28-49 203-94m4664-1942 180 386c-18 115-42 183-92 210l-307-653c125-7 202 14 218 58m-6794 6324c50 355 44 554-25 580l-16-44c-84-148-70-329 40-537m1990 1380c358-210 1212-1140 2560-2800l43 93c15 43-76 224-305 543-712 750-1130 1227-1233 1432-829 674-1224 1054-1186 1129-724 637-1183 1080-1396 1334-58 31-163 39-298 20-82-168-51-326 77-491 144-63 290-95 440-91 127-135 365-320 720-566l-44-93-313 144c13-74 267-324 751-756l150-74 16 45c-260 124-380 255-363 408 30 57 77 79 144 45 180-183 246-296 237-323m-2060-596 16 43c35 66 15 122-55 148l-28-49c-15-43 4-100 68-141m2718-223c-120 53-317 242-595 560l-50 27-44-92c245-118 436-296 546-533 67-34 110-20 141 37m-2299 1642 151-74 28 49a490 490 0 00-134 118l-102 48c-28-50-6-97 57-140m-840 965 119 5c76 316 38 507-98 567a720 720 0 00-348 47l-63-144c-26-49-4-96 60-138 65-35 118 4 162 97 95-280 150-427 168-434m-21579-6190a19873 19873 0 01-1563 2013l57 128c51-20 100-76 170-150 84-42 149-26 180 61l112-129 67-34 31 58c30 58-312 605-1017 1619l122 94-67 32-167 3c16 43-35 91-172 150l35 67 220 117a592 592 0 01-226 32c-294 137-517 473-661 997l123 94c175-330 278-505 322-521l88 184c-44 16-100 76-172 150l254 184a5150 5150 0 01 724-1236c210-17 324 0 350 69l135-60c744-1125 1558-2030 2437-2733l56 126c-82 344-162 530-229 564a562 562 0 00 189 217c80 168 42 1468-110 3921-318 5678-755 9945-1315 12820 16 44 75 101 147 163 317-213 514-373 579-495l75-37 57 127 126-57 110-128c17 44 75 42 160 1l55 127c57 126 60 351-8 680-88 220-113 612-93 1183l32 58 127-56c335-840 542-1623 618-2337 1485-1091 2573-2028 3281-2817 850-397 1447-870 1760-1417l-34-65-295 215-76 38-33-67c608-330 1007-643 1182-922 908-1430 1606-2462 2102-3104 1461-2182 1890-3930 1290-5225-58-135-701-522-1910-1162-83-176 126-547 609-1116l1179-2150c202-633 147-1516-176-2647l-120-250c-350-746-1135-1170-2371-1260-780-197-1985-14-3613 549-1287 607-2874 1714-4730 3332m9370-3282-5 150-2226-104c1306-416 2050-432 2230-46m-5871 8190c-128-760-128-1220 2-1376l267-3763c-90-193 158-460 756-796l202-92 84 176a44818 44818 0 01 1097-586c1114-514 1788-503 2045 42l128-58-146-320 136-60c405 60 670 219 786 481 83 177 70 437-50 784-84 42-158 0-214-127l-136 60 107 403c-267 1080-524 1674-775 1795-118 406-206 625-264 656-104 282-464 837-1092 1655-260 124-1121 870-2578 2255a534 534 0 00-294 58l-54-119c-108-244-118-595-5-1069m6544-6901 54 119c-68 33-274-127-616-474l-54-119c116-61 323 100 616 474M8768 37430l30 57c-41 15-100 76-170 150l-66 35-54-118 261-124m4165-1634 86 184c-57 33-113 150-150 370l-57-126c68-192 88-327 60-405l60-22m-151 1588 120 250-65 35-122-252 67-33m5 529c62 222 50 354-60 404l-65 35c24-177 30-297-8-372l133-66m-40 780 32 58-47 252-128 58-30-58c127-58 163-148 107-276l66-34m-75 715 82 334-66 35-143-312 128-57m7142-2335 350 68c40 84 15 152-70 192-150-33-257-34-327-8l-87-185 133-67m-5257 2749 53 117-260 125-54-118 260-123m4620-1170c223 16 350 67 384 134l32 57c-177 85-377 50-610-102l194-90m-5232 3498c758-354 1861-1169 3300-2440l396-183c827-380 1520-454 2083-208l121 250c15 1017-143 1665-457 1966l-1239 2013c-987 1322-1527 2001-1630 2048-1647 1887-2724 2937-3204 3162l-75 36c-20-268 212-2474 705-6643m1610-1421 32 58-270 127-30-58 269-127m6148-2552 230 497c-11 160-47 253-116 278l-407-874c170 7 261 42 292 100m-8961 8330c74 475 60 736-32 779l-31-57c-100-220-76-454 63-720m2630 1814c470-280 1590-1512 3370-3684l54 120c28 47-114 285-400 714-953 985-1490 1623-1616 1895-1095 890-1615 1384-1568 1486-954 847-1567 1434-1843 1760-74 38-210 47-391 35-100-220-70-436 103-666 184-87 385-130 588-116 170-180 483-432 953-740L14563 49000l-396 183c27-88 353-413 992-988l200-95 32 58c-338 153-498 339-475 537 38 74 97 103 180 62 190-266 286-408 276-435m-2712-790 31 56c40 85 15 152-68 192l-31-57c-38-74-13-143 68-192m3576-300c-159 78-416 319-782 746l-67 36-57-129c322-146 562-380 711-700 90-52 158-28 195 47m-3035 2166 202-93 35 66c-53 20-100 76-172 150l-128 58c-31-59-14-122 63-181m-1102 1276 170 7c90 409 49 650-145 740a952 952 0 00-457 67l-87-184c-38-74-10-134 76-195 84-40 158 1 214 129 130-372 211-560 228-565m32395-31100-128-2-1749 961a500 500 0 00-268 50c-100 45-246 137-459 283l-760 700 110 87a470 470 0 00 157-135l322-89 65 310c-240 236-344 490-296 758-366 349-533 566-501 653l27 49 67-34 100-104 199 113 99 220c35 67-140 1890-517 5456-219 3381-307 5223-274 5534-390 280-585 557-570 816 39 74 184 70 446 4l50 110-43 231 99 220c53 118 406 88 1058-70-16-45-5-68 36-92 60 136 125 425 180 877l67-34c132-450 165-738 106-874l50-28c57-30 155 22 290 150-65 63-117 790-141 2184l110 88 67-35c50-1678 118-2627 209-2837 740-348 2007-956 3814-1840l88-110c16 43 48 50 88 26l120-54 87-110c16 44 48 51 88 27l1375-638c362-170 504-350 417-535-28-49 176-192 607-417a686 686 0 01 204-36c-13-35 192-149 629-357-77-238-46-396 90-455l-50-110a2120 2120 0 00-401 254c-302 90-500 143-591 136a470 470 0 01-157 136l-980 396-100 105c-13-34-44-42-85-17l-48 28-110 108c-13-35-126-24-344 26l-97 114-238 107-30-58c1220-602 1792-1006 1700-1208 75-38 134-10 172 65l339-232-50-110-3014 1195c16 43 4 66-36 92l-386 100a431 431 0 00-204 173h-159c-370 173-641 321-810 450a6270 6270 0 00-867 327l-666 310-325 80c-90-193-59-1325 104-3400 17-683 97-1135 247-1347a563 563 0 01 207-26l428-342 267-49c406-187 849-485 1333-887a852 852 0 01 322-89l344-223 1070-498a8382 8382 0 00 1418-870l-50-109c-203 93-320 97-356 22-75-150-244-156-523-26l-50-110 274-197 775-361-50-110c-35 12-192 69-500 170l-53-118 304-140c75-38 103-97 69-163-414 161-630 220-648 167-2848 1193-4283 1745-4322 1662-44 16-95 63-154 144l-123-93c175-1900 327-2890 455-2946 32 57 34 174 15 339l28 48 119-54c38-839 155-1304 366-1400 877-407-181-91 1659-1103 90 6 158 2 190-20 708-435 1713-977 3019-1640l-50-110-706 336-50-110a399 399 0 00 187-165l32 57c43-15 85-60 136-138a606 606 0 01 300-70c228-160 415-268 565-343l437-208c87-110 118-190 87-248l-20-51c-109 50-243 88-410 120-30-59-10-114 62-161l815-385 356-238c16 43 50 52 75 42 44-16 87-61 137-138 210-47 335-83 357-101 103-205 243-393 414-545-118-53-188-107-219-165l-545 258c-16-44-61-86-125-151-19-53 85-149 326-295l129 2 83-100c12 35 44 43 75 22l83-98c13 34 45 42 77 20l50-28-50-110a6520 6520 0 01-618 225l-80 110-31-56c-2575 1181-4036 1852-4380 2016-44 16-236 86-560 193 16 45-10 83-88 110l-133-9-357 239c-85 40-245 88-467 150a472 472 0 01-187 165c-84 41 2060-887 1979-897l-304 220-50 27a2970 2970 0 01-528 172 560 560 0 01-248 190 404 404 0 01-240 38c-87 60-340 230-778 490m265 296c16 43 65 45 132 10l50 110-110 50a404 404 0 01-240 38 426 426 0 01-187 167l35-13-327 80-27-50c374-165 480-252 675-392m277-131 58-32 50 110-168 82c-22-61-11-114 60-160m645-313 31 57c-128 57-280 151-458 284l-58 32 8-142 477-231m-4738 2362 186-85-50-110-184 87 50 110m1323-620 66-34 149 6c38 74 10 134-69 162l-185 87-30-57c-32-58 0-109 68-164m4470-1341 18 52-379 178-19-53 380-177m-1062 574 30 57-220 100-30-58 219-100m1110-306 736-415 407-128 31 58a2035 2035 0 00-458 284c-16-44-107-50-270-10l-555 400c-147-26-226-57-240-91l349-97m-710 455c74-38 122-15 160 59l-318 156-50-110 208-105m-700 216 30 56 2001-836-31-58-2000 837m178 111 20 53-429 204-19-52 428-205m-2079 3360 32 59 126-57a488 488 0 01-23-197l-50-110c-65 35-98 135-84 308m-2120 8120 30 50c36 74 7 134-76 174l-28-49c-34-66-3-117 74-175m-24 285c50 110 73 415 80 923l-185 88c-38-75-34-391-10-950l115-61m2757 1050c31 57-48 165-223 307l-393 113-118 54-50-110 784-364m387-101 28 48-304 140-28-49 304-140"/></g></g>
<style>
  .animated {
    animation-name: open;
    animation-duration: 1s;
    animation-iteration-count: 1;
    animation-direction: normal;
    animation-timing-function: ease-out;
    animation-fill-mode: forwards;
    animation-delay: 9s;
    opacity: 0;
  }
  @keyframes open {
    0% {
      opacity: 0;
    }
    100% {
      opacity: 1;
    }
  }
</style>
</svg>
