<!-- Generated by IcoMoon.io -->
<svg version="1.1" xmlns="http://www.w3.org/2000/svg" width="1024" height="1024" viewBox="0 0 1024 1024">
<title></title>
<g id="icomoon-ignore">
</g>
<path id="animated" fill="#4b32c3" d="M309.632 389.632l194.517-112.299c2.253-1.318 4.961-2.097 7.851-2.097s5.598 0.779 7.925 2.137l-0.075-0.040 194.517 112.299c4.727 2.776 7.851 7.834 7.851 13.622 0 0.011 0 0.022 0 0.033v-0.002 224.555c-0.014 5.781-3.133 10.831-7.777 13.57l-0.074 0.040-194.517 112.299c-2.253 1.318-4.961 2.097-7.851 2.097s-5.598-0.779-7.925-2.137l0.075 0.040-194.517-112.299c-4.727-2.776-7.851-7.834-7.851-13.622 0-0.011 0-0.022 0-0.033v0.002-224.512c0-0.002 0-0.004 0-0.006 0-5.795 3.123-10.861 7.777-13.607l0.074-0.040zM1017.685 491.947l-232.363-404.267c-8.448-14.635-24.064-25.429-40.96-25.429h-464.683c-16.896 0-32.512 10.795-40.96 25.429l-232.363 403.371c-3.974 6.846-6.32 15.064-6.32 23.829s2.346 16.984 6.443 24.060l-0.123-0.231 232.405 400.981c8.405 14.592 24.021 22.059 40.917 22.059h464.768c16.853 0 32.427-7.253 40.917-21.845l232.363-401.621c3.973-6.628 6.322-14.624 6.322-23.168s-2.349-16.54-6.438-23.376l0.115 0.208zM825.301 686.336c-0.172 6.176-3.599 11.514-8.62 14.377l-0.084 0.044-296.064 170.752c-2.402 1.397-5.286 2.221-8.363 2.221s-5.961-0.824-8.443-2.264l0.081 0.043-296.235-170.752c-5.122-2.897-8.566-8.238-8.746-14.397l-0.001-0.025v-341.589c0-5.973 3.541-11.477 8.704-14.421l295.936-170.752c5.12-2.987 11.605-2.987 16.725 0l296.235 170.795c5.14 2.887 8.599 8.23 8.789 14.395l0.001 0.026z"></path>
<style>
  #animated {
    animation-name: open;
    animation-duration: 1s;
    animation-iteration-count: 1;
    animation-direction: normal;
    animation-timing-function: ease-out;
    animation-fill-mode: forwards;
    animation-delay: 7s;
    opacity: 0;
  }
  @keyframes open {
    0% {
      opacity: 0;
    }
    100% {
      opacity: 1;
    }
  }
</style>
</svg>
