<?xml version="1.0"?>
<svg version="1.1" xmlns="http://www.w3.org/2000/svg" x="0" y="0" viewBox="0 0 100 100" xml:space="preserve"><path id="animated" d="M75.9 22.1h-.1c-2.3 0-4.1 1.9-4.1 4.2L71 42c0 .4-.3.8-.8.8-.4 0-.8-.3-.8-.8l.1-21.2c0-2.3-1.9-4.1-4.2-4.1h-.1c-2.3 0-4.1 1.9-4.1 4.2L61 42.1c0 .4-.3.8-.8.8-.4 0-.8-.3-.8-.8L58.9 17c0-2.3-1.9-4.1-4.2-4.1h-.1c-2.3 0-4.1 1.9-4.1 4.2l.4 25.2c0 .4-.3.8-.8.8h-.6c-.4 0-.8-.3-.8-.8l-1-26.7c0-2.3-1.9-4.1-4.2-4.1h-.1c-2.3 0-4.1 1.9-4.1 4.2l.9 23.5.4 15.8c0 1.4-1.8 1.9-2.5.7l-4.4-9.6-2.4-2.6c-1.6-1.3-5-1.7-7.7-.9l-2.2.2c-2.5 1.3-1.4 3.6-.2 5.5 3.9 6.6 7.2 13.3 10.1 20.3 2.5 6.1 6.1 13.4 11.9 16.9 6.8 4 16.9 3.5 23.9.5 11.7-4.9 12.7-21.9 12.5-32.6l-.2-10.7.7-16.5c-.1-2.3-1.9-4.1-4.2-4.1z" fill="#f8b26a"/>

<style>

  #animated {
    animation: slide-tilt 10s infinite ease-in-out;
    transform-origin: bottom center;
    opacity: 0;
  }

  @keyframes slide-tilt {
    0% {
        transform: translateY(100%) rotate(0deg);
        opacity: 0;
      }
    10%, 90% {
        transform: translateY(0) rotate(-15deg);
        opacity: 1;
        animation-timing-function: ease-in-out;
      }
    25% {
      transform: rotate(30deg);
      animation-timing-function: ease-in-out
    }
    50% {
      transform: translateY(0) rotate(-15deg);
    }
    75% {
      transform: rotate(30deg);
    }
    100% {
      transform: translateY(0) rotate(30deg);
    }
  }
  
</style>

</svg>

