<svg width="335.35625px" height="99.2px" xmlns="http://www.w3.org/2000/svg" viewBox="82.321875 25.4 335.35625 99.2" style="background: rgba(0, 0, 0, 0);" preserveAspectRatio="xMidYMid"><defs><filter id="editing-extrude-glow"><feFlood flood-color="#193549" result="flood-1"></feFlood><feMorphology operator="erode" radius="1" in="SourceAlpha" result="erode"></feMorphology><feComposite operator="in" in="flood-1" in2="erode" result="comp1"></feComposite><feConvolveMatrix order="3,3" divisor="1" in="comp1" result="convolve" kernelMatrix="0 0 0 1 1 1 0 0 0"></feConvolveMatrix><feOffset dx="-3" dy="0" in="convolve" result="extrude"></feOffset><feComposite operator="in" in="flood-1" in2="extrude" result="comp-extrude"></feComposite><feFlood flood-color="#193549" result="flood-2"></feFlood><feComposite operator="in" in="flood-2" in2="SourceAlpha" result="comp2"></feComposite><feMorphology operator="dilate" radius="1" in="comp2" result="dilate"></feMorphology><feOffset dx="-4.5" dy="0" in="dilate" result="offset"></feOffset><feGaussianBlur in="offset" stdDeviation="5.8" result="blur"></feGaussianBlur><feComponentTransfer in="blur" result="shadow"><feFuncA type="linear" slope="0.8" intercept="-0.2"></feFuncA></feComponentTransfer><feMerge><feMergeNode in="shadow"></feMergeNode><feMergeNode in="comp-extrude"></feMergeNode><feMergeNode in="SourceGraphic"></feMergeNode></feMerge></filter></defs><g filter="url(#editing-extrude-glow)"><g transform="translate(134.32497709989548, 98.0250015258789)"><path d="M19.50-3.75L19.50-3.75L19.50-3.75Q19.50-7.25 20.90-14.25L20.90-14.25L13.50-14.25L10.75 0L0.30 0L6.65-33L17.20-33L14.30-18.25L21.70-18.25L24.45-33L35-33L35-33Q34.30-29.30 33.40-25.15L33.40-25.15L31.70-17L31.70-17Q29.80-7.50 29.80-3.35L29.80-3.35L29.80-3.35Q29.80-1.65 30.35-0.70L30.35-0.70L30.35-0.70Q27.85 1 24.93 1L24.93 1L24.93 1Q22 1 20.75-0.40L20.75-0.40L20.75-0.40Q19.50-1.80 19.50-3.75ZM56.45-8.45L56.45-8.45L56.45-8.45Q57.70-7.60 57.70-5.73L57.70-5.73L57.70-5.73Q57.70-3.85 56.75-2.65L56.75-2.65L56.75-2.65Q55.80-1.45 54.25-0.65L54.25-0.65L54.25-0.65Q51.05 1 47.60 1L47.60 1L47.60 1Q44.15 1 42.13 0.25L42.13 0.25L42.13 0.25Q40.10-0.50 38.75-1.90L38.75-1.90L38.75-1.90Q36.10-4.55 36.10-9.40L36.10-9.40L36.10-9.40Q36.10-16.95 40.20-21.55L40.20-21.55L40.20-21.55Q44.60-26.50 52.25-26.50L52.25-26.50L52.25-26.50Q57-26.50 59.35-24.50L59.35-24.50L59.35-24.50Q61.10-23 61.10-20.55L61.10-20.55L61.10-20.55Q61.10-11.75 45.90-11.75L45.90-11.75L45.90-11.75Q45.70-10.45 45.70-9.35L45.70-9.35L45.70-9.35Q45.70-7.05 46.73-6.18L46.73-6.18L46.73-6.18Q47.75-5.30 49.65-5.30L49.65-5.30L49.65-5.30Q51.55-5.30 53.58-6.18L53.58-6.18L53.58-6.18Q55.60-7.05 56.45-8.45ZM46.25-13.90L46.25-13.90L46.25-13.90Q49.80-13.90 51.85-16.10L51.85-16.10L51.85-16.10Q53.90-18.20 53.90-21.55L53.90-21.55L53.90-21.55Q53.90-22.70 53.48-23.33L53.48-23.33L53.48-23.33Q53.05-23.95 52.20-23.95L52.20-23.95L52.20-23.95Q51.35-23.95 50.63-23.63L50.63-23.63L50.63-23.63Q49.90-23.30 49.15-22.20L49.15-22.20L49.15-22.20Q47.30-19.70 46.25-13.90ZM78.70-5.65L78.70-5.65L78.70-5.65Q76.10-2.95 71.35-2.95L71.35-2.95L71.35-2.95Q65.40-2.95 64.15-7.30L64.15-7.30L64.15-7.30Q63.75-8.60 63.75-10.05L63.75-10.05L63.75-10.05Q63.75-11.50 64.05-13L64.05-13L66.40-25.50L76.55-26.50L73.80-11.95L73.80-11.95Q73.70-11.30 73.55-10.60L73.55-10.60L73.55-10.60Q73.40-9.90 73.40-9.18L73.40-9.18L73.40-9.18Q73.40-8.45 73.65-7.98L73.65-7.98L73.65-7.98Q73.90-7.50 74.25-7.20L74.25-7.20L74.25-7.20Q74.85-6.80 75.93-6.80L75.93-6.80L75.93-6.80Q77-6.80 77.93-8.10L77.93-8.10L77.93-8.10Q78.85-9.40 79.30-11.65L79.30-11.65L82.05-25.50L91.90-26.50L88.15-6.85L88.15-6.85Q86.30 2.75 82.50 6.55L82.50 6.55L82.50 6.55Q80.55 8.50 78.03 9.28L78.03 9.28L78.03 9.28Q75.50 10.05 72.25 10.05L72.25 10.05L72.25 10.05Q67 10.05 64 8.40L64 8.40L64 8.40Q61 6.75 61 4L61 4L61 4Q61 1.95 62.55 0.78L62.55 0.78L62.55 0.78Q64.10-0.40 66.50-0.40L66.50-0.40L66.50-0.40Q68.60-0.40 70.20 0.50L70.20 0.50L70.20 0.50Q71.15 1.05 71.60 1.75L71.60 1.75L71.60 1.75Q70.45 2.75 70.45 4.40L70.45 4.40L70.45 4.40Q70.45 6.60 72.45 6.60L72.45 6.60L72.45 6.60Q75.75 6.60 77.65-1L77.65-1L77.65-1Q78.20-3.25 78.70-5.65ZM104.80-5L104.80-5L104.80-5Q104.80-6.35 105.50-9.75L105.50-9.75L108.15-23.25L105.20-23.25L105.40-24.75L105.40-24.75Q111.40-26.55 117.20-30.95L117.20-30.95L119.60-30.95L118.40-25.50L122.30-25.50L121.85-23.25L118-23.25L115.45-9.75L115.45-9.75Q114.80-6.65 114.80-5.60L114.80-5.60L114.80-5.60Q114.80-3.20 116.90-2.70L116.90-2.70L116.90-2.70Q116.40-1 114.60 0L114.60 0L114.60 0Q112.80 1 110.25 1L110.25 1L110.25 1Q107.70 1 106.25-0.60L106.25-0.60L106.25-0.60Q104.80-2.20 104.80-5ZM147.20-5.55L147.20-5.55L147.20-5.55Q147.20-3.35 149.45-2.70L149.45-2.70L149.45-2.70Q148.90-0.85 146.75 0.15L146.75 0.15L146.75 0.15Q144.95 1 142.97 1L142.97 1L142.97 1Q141 1 139.97 0.48L139.97 0.48L139.97 0.48Q138.95-0.05 138.40-0.90L138.40-0.90L138.40-0.90Q137.50-2.20 137.50-4.65L137.50-4.65L137.50-4.65Q137.50-6.10 138.30-10.10L138.30-10.10L139-13.90L139-13.90Q139.85-18.25 139.85-19.85L139.85-19.85L139.85-19.85Q139.85-22.65 138.30-22.65L138.30-22.65L138.30-22.65Q136.35-22.65 135.10-19.80L135.10-19.80L135.10-19.80Q134.60-18.70 134.25-17.05L134.25-17.05L130.85 0L120.80 1L127.85-35L137.90-36L137.50-34L137.50-34Q136.10-26.30 134.90-23.70L134.90-23.70L134.90-23.70Q137.70-26.50 142.85-26.50L142.85-26.50L142.85-26.50Q148.30-26.50 149.30-22.90L149.30-22.90L149.30-22.90Q149.65-21.75 149.65-20.75L149.65-20.75L149.65-20.75Q149.65-19.75 149.57-18.98L149.57-18.98L149.57-18.98Q149.50-18.20 149.25-16.80L149.25-16.80L148.60-13.20L147.45-7.55L147.45-7.55Q147.20-6.40 147.20-5.55ZM173.75-8.45L173.75-8.45L173.75-8.45Q175-7.60 175-5.73L175-5.73L175-5.73Q175-3.85 174.05-2.65L174.05-2.65L174.05-2.65Q173.10-1.45 171.55-0.65L171.55-0.65L171.55-0.65Q168.35 1 164.90 1L164.90 1L164.90 1Q161.45 1 159.43 0.25L159.43 0.25L159.43 0.25Q157.40-0.50 156.05-1.90L156.05-1.90L156.05-1.90Q153.40-4.55 153.40-9.40L153.40-9.40L153.40-9.40Q153.40-16.95 157.50-21.55L157.50-21.55L157.50-21.55Q161.90-26.50 169.55-26.50L169.55-26.50L169.55-26.50Q174.30-26.50 176.65-24.50L176.65-24.50L176.65-24.50Q178.40-23 178.40-20.55L178.40-20.55L178.40-20.55Q178.40-11.75 163.20-11.75L163.20-11.75L163.20-11.75Q163-10.45 163-9.35L163-9.35L163-9.35Q163-7.05 164.03-6.18L164.03-6.18L164.03-6.18Q165.05-5.30 166.95-5.30L166.95-5.30L166.95-5.30Q168.85-5.30 170.88-6.18L170.88-6.18L170.88-6.18Q172.90-7.05 173.75-8.45ZM163.55-13.90L163.55-13.90L163.55-13.90Q167.10-13.90 169.15-16.10L169.15-16.10L169.15-16.10Q171.20-18.20 171.20-21.55L171.20-21.55L171.20-21.55Q171.20-22.70 170.78-23.33L170.78-23.33L170.78-23.33Q170.35-23.95 169.50-23.95L169.50-23.95L169.50-23.95Q168.65-23.95 167.93-23.63L167.93-23.63L167.93-23.63Q167.20-23.30 166.45-22.20L166.45-22.20L166.45-22.20Q164.60-19.70 163.55-13.90ZM195.75-14.05L195.75-14.05L195.75-14.05Q197.55-17.25 197.55-20.50L197.55-20.50L197.55-20.50Q197.55-22.65 196-22.65L196-22.65L196-22.65Q194.80-22.65 193.55-20.60L193.55-20.60L193.55-20.60Q192.25-18.55 191.85-15.90L191.85-15.90L189.25 0L178.90 1L184-25.50L192.25-26.50L191.35-21.45L191.35-21.45Q193.80-26.50 199.30-26.50L199.30-26.50L199.30-26.50Q202.20-26.50 203.78-25L203.78-25L203.78-25Q205.35-23.50 205.35-20.43L205.35-20.43L205.35-20.43Q205.35-17.35 203.32-15.40L203.32-15.40L203.32-15.40Q201.30-13.45 197.85-13.45L197.85-13.45L197.85-13.45Q196.35-13.45 195.75-14.05ZM226.40-8.45L226.40-8.45L226.40-8.45Q227.65-7.60 227.65-5.73L227.65-5.73L227.65-5.73Q227.65-3.85 226.70-2.65L226.70-2.65L226.70-2.65Q225.75-1.45 224.20-0.65L224.20-0.65L224.20-0.65Q221 1 217.55 1L217.55 1L217.55 1Q214.10 1 212.08 0.25L212.08 0.25L212.08 0.25Q210.05-0.50 208.70-1.90L208.70-1.90L208.70-1.90Q206.05-4.55 206.05-9.40L206.05-9.40L206.05-9.40Q206.05-16.95 210.15-21.55L210.15-21.55L210.15-21.55Q214.55-26.50 222.20-26.50L222.20-26.50L222.20-26.50Q226.95-26.50 229.30-24.50L229.30-24.50L229.30-24.50Q231.05-23 231.05-20.55L231.05-20.55L231.05-20.55Q231.05-11.75 215.85-11.75L215.85-11.75L215.85-11.75Q215.65-10.45 215.65-9.35L215.65-9.35L215.65-9.35Q215.65-7.05 216.68-6.18L216.68-6.18L216.68-6.18Q217.70-5.30 219.60-5.30L219.60-5.30L219.60-5.30Q221.50-5.30 223.53-6.18L223.53-6.18L223.53-6.18Q225.55-7.05 226.40-8.45ZM216.20-13.90L216.20-13.90L216.20-13.90Q219.75-13.90 221.80-16.10L221.80-16.10L221.80-16.10Q223.85-18.20 223.85-21.55L223.85-21.55L223.85-21.55Q223.85-22.70 223.43-23.33L223.43-23.33L223.43-23.33Q223-23.95 222.15-23.95L222.15-23.95L222.15-23.95Q221.30-23.95 220.58-23.63L220.58-23.63L220.58-23.63Q219.85-23.30 219.10-22.20L219.10-22.20L219.10-22.20Q217.25-19.70 216.20-13.90Z" fill="#daae0c"></path></g></g><style>text {
  font-size: 64px;
  font-family: Arial Black;
  dominant-baseline: central;
  text-anchor: middle;
}</style></svg>